<svg width="60" height="68" viewBox="0 0 60 68" fill="none" xmlns="http://www.w3.org/2000/svg">
<path d="M49.4955 26.8462V15.146C49.4955 8.4379 44.0576 3 37.3495 3C33.0543 3 29.0783 5.26879 26.8927 8.96689L3.67047 48.2658C1.79198 51.4452 4.08364 55.4615 7.77639 55.4615H20.8801C36.6843 55.4615 49.4955 42.6498 49.4955 26.8462Z" stroke="white" stroke-width="5" stroke-linecap="round" stroke-linejoin="round"/>
<path d="M39.957 49.1545L47.1109 65" stroke="white" stroke-width="5" stroke-linecap="round" stroke-linejoin="round"/>
<path d="M28.2198 54.5685L32.8032 65" stroke="white" stroke-width="5" stroke-linecap="round" stroke-linejoin="round"/>
<path d="M49.4955 17.3077H56.6493" stroke="white" stroke-width="5" stroke-linecap="round" stroke-linejoin="round"/>
<path d="M36.3801 17.3077C35.7217 17.3077 35.1878 16.7738 35.1878 16.1154C35.1878 15.4569 35.7217 14.9231 36.3801 14.9231" stroke="white" stroke-width="5" stroke-linecap="round" stroke-linejoin="round"/>
<path d="M36.3801 17.3077C37.039 17.3077 37.5724 16.7738 37.5724 16.1154C37.5724 15.4569 37.039 14.9231 36.3801 14.9231" stroke="white" stroke-width="5" stroke-linecap="round" stroke-linejoin="round"/>
<path d="M6.96854 43.5385H19.1919C23.0919 43.5385 26.5993 41.1641 28.0481 37.5424L30.4186 31.6154" stroke="white" stroke-width="5" stroke-linecap="round" stroke-linejoin="round"/>
</svg>
