<svg width="66" height="65" viewBox="0 0 66 65" fill="none" xmlns="http://www.w3.org/2000/svg">
<path d="M2 62.0633C6.4991 62.6205 11.0094 61.1172 14.2747 57.9717C19.202 63.4214 27.7588 63.4214 32.6864 57.9717C37.6137 63.4214 46.1705 63.4214 51.0981 57.9717C54.3631 61.1172 58.8734 62.6205 63.3725 62.0633" stroke="white" stroke-width="4" stroke-linecap="round" stroke-linejoin="round"/>
<path d="M59.5537 34.7866C58.1479 33.7649 56.5054 33.1174 54.7803 32.9044C53.309 22.9025 46.2882 14.6023 36.6687 11.4922C36.6687 9.14641 36.3414 2 34.6503 2C30.2313 2.05451 25.4579 7.86448 23.4668 10.7012C18.094 11.7684 13.1799 14.4635 9.392 18.4205C7.12686 21.3303 6.64466 25.25 8.13734 28.622C6.77982 30.3875 6.05878 32.5599 6.09165 34.7866C6.13886 36.9573 8.05669 38.6085 10.2103 38.3325C13.018 34.9234 16.6258 32.2621 20.7118 30.5859C21.4222 33.5389 23.6432 35.8948 26.5491 36.7777C27.679 34.188 28.3348 31.4163 28.4857 28.5947H30.6404C36.6047 28.6287 42.3784 30.6977 47.0065 34.4592C45.7347 35.2159 44.6598 36.2627 43.8696 37.5143C41.9591 40.3689 41.5045 43.9565 42.6422 47.1975C46.0766 47.1762 49.3003 45.5388 51.3434 42.7785C51.8006 42.1269 52.176 41.4213 52.4618 40.6783C55.3395 43.9435 59.9648 45.0372 64 43.406C63.9767 39.9885 62.3252 36.7867 59.5537 34.7866Z" stroke="white" stroke-width="4" stroke-linecap="round" stroke-linejoin="round"/>
</svg>
