<svg width="69" height="69" viewBox="0 0 69 69" fill="none" xmlns="http://www.w3.org/2000/svg">
<path d="M23.1421 54.7493V60.4993" stroke="#FFEDED" stroke-width="5" stroke-linecap="round" stroke-linejoin="round"/>
<path d="M23.1421 37.4993V43.2493" stroke="#FFEDED" stroke-width="5" stroke-linecap="round" stroke-linejoin="round"/>
<path d="M46.1421 54.7493V60.4993" stroke="#FFEDED" stroke-width="5" stroke-linecap="round" stroke-linejoin="round"/>
<path d="M46.1421 37.4993V43.2493" stroke="#FFEDED" stroke-width="5" stroke-linecap="round" stroke-linejoin="round"/>
<path d="M34.6421 60.4993V66.2493" stroke="#FFEDED" stroke-width="5" stroke-linecap="round" stroke-linejoin="round"/>
<path d="M34.6421 43.2493V48.9993" stroke="#FFEDED" stroke-width="5" stroke-linecap="round" stroke-linejoin="round"/>
<path d="M57.6419 47.7917C60.6643 46.468 63.1392 44.1449 64.6514 41.2124C66.1636 38.2798 66.6209 34.9163 65.9467 31.6865C65.2724 28.4566 63.5075 25.557 60.9483 23.4745C58.3891 21.3919 55.1914 20.2531 51.8919 20.2492H48.2694C47.3581 16.7202 45.6211 13.4583 43.2017 10.7324C40.7823 8.00642 37.7496 5.89452 34.3538 4.57071C30.9579 3.2469 27.296 2.7491 23.67 3.11833C20.044 3.48755 16.5576 4.71324 13.4983 6.69436C10.439 8.67549 7.89427 11.3553 6.07394 14.513C4.25361 17.6706 3.20977 21.2157 3.02847 24.8559C2.84718 28.4962 3.5336 32.1274 5.03118 35.4503C6.52875 38.7732 8.7946 41.6926 11.6419 43.9679" stroke="#FFEDED" stroke-width="5" stroke-linecap="round" stroke-linejoin="round"/>
</svg>
