<svg width="66" height="57" viewBox="0 0 66 57" fill="none" xmlns="http://www.w3.org/2000/svg">
<path d="M37.0349 8.7406C37.0349 10.5283 37.7451 12.2428 39.0092 13.5069C40.2733 14.771 41.9878 15.4812 43.7755 15.4812C45.5633 15.4812 47.2778 14.771 48.5419 13.5069C49.806 12.2428 50.5161 10.5283 50.5161 8.7406C50.5161 6.95288 49.806 5.23838 48.5419 3.97427C47.2778 2.71017 45.5633 2 43.7755 2C41.9878 2 40.2733 2.71017 39.0092 3.97427C37.7451 5.23838 37.0349 6.95288 37.0349 8.7406Z" stroke="white" stroke-width="4" stroke-linecap="round" stroke-linejoin="round"/>
<path d="M21.7176 35.0289L29.72 23.5969C31.3988 21.2245 33.8689 19.529 36.6861 18.8153C39.5034 18.1016 42.4828 18.4166 45.0886 19.7035L52.3253 23.3326C52.8045 23.5677 53.2325 23.8953 53.5845 24.2965C53.9365 24.6977 54.2056 25.1647 54.3763 25.6704C54.547 26.1762 54.6159 26.7107 54.579 27.2432C54.5421 27.7757 54.4002 28.2956 54.1614 28.773C53.9226 29.2503 53.5917 29.6757 53.1878 30.0246C52.7838 30.3735 52.3148 30.639 51.8077 30.8057C51.3007 30.9724 50.7656 31.0372 50.2334 30.9961C49.7012 30.9551 49.1824 30.8091 48.7069 30.5666L41.4702 26.9483C40.6014 26.5209 39.6089 26.4167 38.6702 26.6543C37.7316 26.8919 36.9082 27.4559 36.3474 28.2452L31.5939 35.0397" stroke="white" stroke-width="4" stroke-linecap="round" stroke-linejoin="round"/>
<path d="M38.3723 43.7108L47.8711 30.1406" stroke="white" stroke-width="4" stroke-linecap="round" stroke-linejoin="round"/>
<path d="M11.7928 43.9966L7.36285 37.105C7.23215 36.9013 7.15871 36.6661 7.15023 36.4243C7.14175 36.1824 7.19854 35.9427 7.31466 35.7303C7.43077 35.5179 7.60191 35.3407 7.81013 35.2173C8.01834 35.0939 8.25593 35.0288 8.49797 35.0289H59.9557" stroke="white" stroke-width="4" stroke-linecap="round" stroke-linejoin="round"/>
<path d="M64 54.609C57.2594 56.0137 53.0533 49.2731 53.0533 49.2731C52.0098 50.9309 50.5722 52.3045 48.8686 53.2714C47.165 54.2382 45.2485 54.7681 43.2902 54.8139C41.4386 54.7801 39.6303 54.2479 38.0555 53.2733C36.4808 52.2988 35.1977 50.9179 34.3414 49.2758C33.0847 50.9096 31.4884 52.2511 29.6627 53.2077C27.8369 54.1644 25.8253 54.7133 23.7667 54.8166C21.8197 54.7245 19.9218 54.1749 18.227 53.2122C16.5321 52.2495 15.088 50.901 14.0117 49.2758C14.0117 49.2758 8.61926 56.127 2 54.7222" stroke="white" stroke-width="4" stroke-linecap="round" stroke-linejoin="round"/>
</svg>
