<svg width="64" height="69" viewBox="0 0 64 69" fill="none" xmlns="http://www.w3.org/2000/svg">
<path d="M28.5092 29.1693C30.3921 31.472 31.5409 34.3115 31.8007 37.3048C32.0604 40.2981 31.4185 43.301 29.9616 45.9085C28.6718 46.0107 27.3924 45.6067 26.382 44.7783C25.3717 43.9499 24.706 42.7588 24.5194 41.4462C22.5882 42.5283 20.9986 44.1538 19.9379 46.1311C18.8771 48.1085 18.3893 50.3555 18.532 52.6075C18.532 54.3665 18.8699 56.1082 19.5264 57.7333C20.1829 59.3583 21.1451 60.8348 22.3582 62.0784C23.5712 63.3221 25.0112 64.3085 26.5961 64.9814C28.1809 65.6543 29.8795 66.0004 31.5948 66C35.044 65.952 38.3387 64.5256 40.7779 62.0244C43.217 59.5231 44.608 56.1445 44.6548 52.6075C45.1371 39.3977 37.6562 32.2378 28.5092 29.1693Z" stroke="white" stroke-width="5" stroke-linecap="round" stroke-linejoin="round"/>
<path d="M55.9397 19.8003H54.9234L47.6348 29.0125C44.8725 20.5012 45.2263 11.2696 48.6317 3C42.2857 3.32519 36.1286 5.29261 30.7503 8.7138C25.3719 12.135 20.9525 16.8953 17.9154 22.5387L11.308 16.023C7.44545 20.009 4.78455 25.0242 3.63629 30.4826C2.48803 35.9409 2.89983 41.617 4.82358 46.8475C6.74733 52.078 10.1036 56.6468 14.5001 60.0202C18.8966 63.3936 24.1518 65.4321 29.6517 65.8975C35.1515 66.363 40.6687 65.2362 45.5587 62.6487C50.4486 60.0613 54.5093 56.1202 57.2662 51.2858C60.0231 46.4514 61.3624 40.9236 61.1275 35.3482C60.8926 29.7727 59.0933 24.3801 55.9397 19.8003Z" stroke="white" stroke-width="5" stroke-linecap="round" stroke-linejoin="round"/>
</svg>
