<svg width="67" height="67" viewBox="0 0 67 67" fill="none" xmlns="http://www.w3.org/2000/svg">
<path d="M52.9006 47C56.2682 46.3172 59.2616 44.4091 61.2997 41.6464C63.3378 38.8836 64.2752 35.4632 63.9298 32.0491C63.5845 28.635 61.981 25.4708 59.4308 23.1708C56.8806 20.8709 53.5656 19.5992 50.1292 19.6026H46.6373C45.7191 16.0529 43.9326 12.7864 41.4379 10.0965C38.9433 7.40657 35.8188 5.37736 32.3449 4.19106C28.871 3.00476 25.1564 2.6985 21.5347 3.2998C17.913 3.90109 14.4975 5.3911 11.5948 7.63606C8.6922 9.88102 6.39331 12.8106 4.90456 16.1619C3.4158 19.5132 2.78379 23.1812 3.06525 26.8366C3.34672 30.492 4.53286 34.0204 6.51718 37.105C8.5015 40.1896 11.2219 42.7339 14.4341 44.5093" stroke="white" stroke-width="5" stroke-linecap="round" stroke-linejoin="round"/>
<path d="M36.3333 31L25 47.5H42L30.6667 64" stroke="white" stroke-width="5" stroke-linecap="round" stroke-linejoin="round"/>
</svg>
